<svg width="377" height="307" viewBox="0 0 377 307" fill="none" xmlns="http://www.w3.org/2000/svg">
<path d="M364.638 120.704C364.217 119.824 363.575 119.068 362.776 118.509C331.542 97.6216 327.76 95.9383 327.76 95.9383C312.823 89.1951 312.604 82.0742 304.086 72.6537C300.466 68.6727 296.353 65.1687 291.848 62.2262C271.55 48.3675 251.93 50.5478 238.052 44.65C234.904 43.2246 231.52 42.3946 228.07 42.2022C225.93 42.0832 223.783 42.2229 221.676 42.6182C212.798 44.2205 192.86 43.8472 180.752 44.8275C162.999 46.256 150.069 51.5132 124.558 61.9991C104.724 70.136 103.333 73.5741 96.3285 75.8624C93.7825 76.5754 91.4799 77.9711 89.6699 79.8984C88.3058 81.6543 87.2629 83.6376 86.5893 85.7566C83.5245 92.1667 78.6306 91.7036 73.6163 98.1269C70.6866 101.906 72.2592 102.197 68.9896 107.593C64.6109 114.815 60.6113 116.253 55.0623 122.545C52.0774 125.932 51.0451 127.985 45.781 137.276C27.9239 169.177 24.5956 172.424 19.7677 185.639C17.6526 191.413 17.6311 192.579 15.5685 197.137C12.6332 203.636 8.60731 210.113 4.3852 220.472C2.84411 224.213 2.07107 226.518 3.1638 227.995C4.57907 229.93 8.18318 228.64 13.9363 228.143C22.2124 227.451 34.7916 228.476 42.8123 232.371C44.9205 233.507 47.2482 234.178 49.6381 234.337C52.0279 234.496 54.424 234.14 56.6641 233.292C63.6323 231.186 70.8903 230.198 78.1679 230.364C85.2614 230.915 92.302 232.01 99.2278 233.639C100.818 233.98 102.443 234.131 104.068 234.089C106.277 234.007 108.463 233.622 110.566 232.943C115.154 231.649 120.084 230.269 125.18 231.065C128.712 231.61 128.574 232.635 133.266 233.54C136.336 234.108 139.464 234.291 142.58 234.085C149.941 233.736 151.113 232.115 160.451 231.023C167.801 230.179 169.931 230.891 171.117 232.145C172.624 233.705 172.526 235.722 174.633 236.995C176.139 237.776 177.875 237.994 179.527 237.609C189.259 235.99 199.386 238.001 209.127 236.421C237.006 231.92 236.951 236.461 255.695 231.458C267.344 228.276 278.516 223.555 288.918 217.421C297.388 212.469 306.582 207.033 315.575 196.483C321.134 189.775 325.744 182.335 329.274 174.37C332.903 167.083 335.664 159.394 337.499 151.463C341.264 134.416 343.144 125.901 343.157 125.696C343.339 123.644 343.623 119.405 345.69 118.759C346.841 118.38 348.095 119.198 352.885 123.169C360.123 129.177 361.222 130.24 362.583 129.855C364.858 129.053 366.246 123.932 364.638 120.704Z" stroke="#1D1D1B" stroke-width="5" stroke-miterlimit="10"/>
<path d="M329.948 111.366C297.613 104.412 264.595 101.145 231.524 101.628C186.277 102.361 164.474 109.977 155.072 113.719C144.426 117.911 134.931 122.876 118.447 133.535C88.0962 153.238 59.429 175.421 32.7399 199.856" stroke="#1D1D1B" stroke-width="2" stroke-miterlimit="10" stroke-linecap="round"/>
<path d="M324.389 116.465C321.247 123.498 316.703 133.476 311.023 145.311C300.334 167.632 297.23 172.351 293.772 176.511C286.401 185.38 279.125 189.623 265.09 197.614C240.423 211.67 223.032 221.483 211.279 228.106" stroke="#1D1D1B" stroke-width="2" stroke-miterlimit="10" stroke-linecap="round"/>
<path d="M290.613 111.489C287.118 120.532 282.772 129.222 277.635 137.444C272.493 146.332 266.149 154.467 258.781 161.619C247.367 172.255 243.788 170.13 230.637 181.531C220.275 190.498 220.254 193.743 210.472 203.041C201.248 211.745 190.759 219.003 179.362 224.568" stroke="#1D1D1B" stroke-width="2" stroke-miterlimit="10" stroke-linecap="round"/>
<path d="M229.617 110.098C227.949 115.358 225.437 122.905 221.987 131.734C216.095 146.899 212.588 155.884 206.549 165.022C200.302 174.469 192.856 180.712 178.204 192.841C166.885 202.205 155.03 210.9 142.699 218.884" stroke="#1D1D1B" stroke-width="2" stroke-miterlimit="10" stroke-linecap="round"/>
<path d="M158.144 127.699C156.031 135.599 153.492 143.379 150.539 151.004C144.601 165.818 139.707 178.299 129.494 190.59C121.509 199.991 111.74 207.717 100.752 213.322" stroke="#1D1D1B" stroke-width="2" stroke-miterlimit="10" stroke-linecap="round"/>
<path d="M102.223 131.503C96.7485 129.41 90.9124 128.429 85.0549 128.615C77.8185 128.965 70.7588 130.97 64.4189 134.477C57.3988 138.026 51.1374 142.909 45.9844 148.852" stroke="#1D1D1B" stroke-width="2" stroke-miterlimit="10" stroke-linecap="round"/>
<path d="M207.093 93.9929C201.574 90.0797 195.551 86.931 189.188 84.6324C181.541 81.9849 173.547 80.4703 165.461 80.1366C157.506 79.8192 149.544 80.5343 141.773 82.2639C131.042 84.5923 120.615 88.1475 110.698 92.8594C97.0016 99.0984 84.0159 106.791 71.9642 115.806" stroke="#1D1D1B" stroke-width="2" stroke-miterlimit="10" stroke-linecap="round"/>
<path d="M285.911 91.1363C280.209 85.277 273.981 79.9544 267.304 75.2358C258.344 69.0749 248.72 63.9387 238.615 59.9236C230.958 56.737 223.097 54.0645 215.085 51.9238" stroke="#1D1D1B" stroke-width="2" stroke-miterlimit="10" stroke-linecap="round"/>
<path d="M251.6 92.0391C247.065 89.0372 240.48 84.758 232.423 79.7778C217.692 70.4965 210.278 65.9006 204.342 63.2922C196.037 59.6306 182.71 55.5687 163.523 56.9102" stroke="#1D1D1B" stroke-width="2" stroke-miterlimit="10" stroke-linecap="round"/>
</svg>
