<svg width="332" height="321" viewBox="0 0 332 321" fill="none" xmlns="http://www.w3.org/2000/svg">
<path d="M104.528 82.1183C104.528 82.1183 133.161 57.4024 177.564 26.318C186.662 19.9495 207.612 5.67093 235.689 3.29537C253.91 1.75379 260.279 6.60599 263.008 9.53752C270.236 17.1191 268.82 29.0979 267.885 36.0983C264.777 60.4603 249.614 77.4683 244.863 82.5479C175.643 158.364 131.898 192.733 88.5815 220.229C81 224.98 57.1433 239.789 31.0375 236.176C16.7842 234.204 11.0475 228.038 9.32897 226.067C2.32867 217.702 2.85938 207.113 3.13737 203.044C4.22406 186.441 15.1415 174.436 19.9684 169.332C67.6564 118.586 91.6647 93.1874 104.528 82.1183Z" stroke="#1D1D1B" stroke-width="5" stroke-miterlimit="10" stroke-linecap="round"/>
<path d="M8.21704 224.677C14.3054 236.59 21.9543 247.638 30.9617 257.53C40.6502 267.97 51.7007 277.057 63.8151 284.546C77.7676 293.47 92.7876 300.602 108.521 305.774C129.724 313.179 146.429 318.966 167.859 317.298C180.405 315.999 192.744 313.173 204.605 308.883C226.667 301.529 235.841 294.074 248.426 298.269C255.755 300.796 256.741 304.587 265.687 306.229C268.214 306.709 279.485 308.756 289.164 302.236C296.973 296.98 299.652 288.943 302.432 280.553C304.794 273.241 306.138 265.639 306.425 257.96C307.967 236.757 317.14 230.439 324.115 209.261C331.368 187.3 329.776 169.028 327.198 139.764C325.603 122.2 322.346 104.828 317.469 87.8804C311.757 67.9409 308.169 55.3555 298.439 41.4054C289.156 28.2712 277.049 17.3822 263.008 9.5376" stroke="#1D1D1B" stroke-width="5" stroke-miterlimit="10" stroke-linecap="round"/>
<path d="M231.57 15.931C230.079 13.2017 217.291 17.1946 209.659 20.3536C208.421 20.859 204.175 23.1335 195.709 27.6572C185.6 33.0906 176.856 37.7659 171.145 44.6904C170.159 45.9035 169.275 47.2176 169.275 47.2176C166.617 51.1303 164.492 55.3796 162.957 59.8535C154.945 75.8759 134.551 109.538 137.053 111.332C137.862 111.888 140.743 108.805 146.024 103.751C155.299 94.5265 165.054 85.833 174.253 76.533C190.983 59.4492 206.93 41.7336 224.342 25.5596C227.324 22.8302 232.682 17.9275 231.57 15.931Z" stroke="#1D1D1B" stroke-width="2" stroke-miterlimit="10" stroke-linecap="round"/>
<path d="M244.559 17.9273C249.614 18.4327 253.708 26.1154 253.86 32.5344C253.964 36.2405 252.795 39.8705 250.549 42.8201C249.275 44.3494 247.69 45.5899 245.899 46.4592C240.137 49.3655 237.306 54.1672 206.702 75.0164C183.907 90.685 143.169 116.816 142.032 115.199C141.602 114.567 147.819 110.144 158.964 100.592C176.468 86.0803 192.593 69.981 207.132 52.4992C215.623 41.9103 226.869 33.8991 235.664 23.5629C237.382 21.5412 240.718 17.5229 244.559 17.9273Z" stroke="#1D1D1B" stroke-width="2" stroke-miterlimit="10" stroke-linecap="round"/>
<path d="M158.761 52.4995C159.393 53.106 158.029 55.431 154.768 61.1425C151.803 66.2979 148.855 71.4618 145.923 76.6341C139.75 86.8413 134.344 97.4933 129.749 108.502C129.04 110.904 127.464 112.958 125.327 114.264C123.861 114.798 122.303 115.033 120.744 114.955C119.186 114.877 117.659 114.487 116.254 113.809C100.813 108.451 93.5095 111.585 92.1195 107.845C91.2097 105.318 94.0654 102.563 120.904 80.0458C122.345 78.8328 129.901 72.9697 145.039 61.2183C152.393 55.5827 157.725 51.4886 158.761 52.4995Z" stroke="#1D1D1B" stroke-width="2" stroke-miterlimit="10" stroke-linecap="round"/>
<path d="M134.172 127.936C135.508 126.369 137.26 125.212 139.226 124.6C147.313 121.947 180.47 102.462 189.037 97.155C201.825 89.2449 214.056 79.2625 234.198 62.8611C240.693 57.5287 246.455 52.7523 247.693 53.7885C249.614 55.4564 239.783 70.4426 230.862 81.5875C221.36 93.6928 214.916 98.8482 194.016 118.864C187.218 125.358 181.228 131.247 169.224 142.973C139.049 172.516 128.738 183.913 125.782 181.715C124.543 180.855 126.06 178.758 127.551 169.079C128.663 161.725 131.038 141.507 131.973 133.698C132.133 131.605 132.897 129.603 134.172 127.936V127.936Z" stroke="#1D1D1B" stroke-width="2" stroke-miterlimit="10" stroke-linecap="round"/>
<path d="M125.554 127.482C126.641 127.937 125.554 132.789 125.099 135.241C123.179 144.515 122.067 153.942 119.792 163.04C113.677 187.73 114.485 186.922 113.146 189.146C108.092 197.511 101.192 201.503 90.4012 207.746C78.4476 214.62 60.3024 222.403 58.0785 219.042C56.9665 217.324 60.4793 213.533 67.1511 205.522C67.1511 205.522 79.9387 190.359 91.0583 174.993C92.2966 173.3 112.16 146.032 121.612 131.601C122.32 130.54 124.569 127.103 125.554 127.482Z" stroke="#1D1D1B" stroke-width="2" stroke-miterlimit="10" stroke-linecap="round"/>
<path d="M117.139 123.058C116.027 122.073 108.445 129.023 103.846 133.016C79.5847 154.118 35.6117 182.094 23.7339 195.235C22.446 196.634 21.4647 198.287 20.8529 200.087C19.9631 202.841 19.8509 205.787 20.5287 208.601C21.2065 211.415 22.648 213.987 24.6942 216.034C31.2396 222.124 41.1715 218.561 42.8394 218.03C50.5726 215.276 54.3887 209.084 58.5585 202.867C66.4181 191.368 59.443 203.853 85.7763 169.66C85.7763 169.66 93.6864 159.399 110.341 135.138C114.384 129.25 118.023 123.842 117.139 123.058Z" stroke="#1D1D1B" stroke-width="2" stroke-miterlimit="10" stroke-linecap="round"/>
<path d="M109.33 119.521C109.077 118.207 106.423 118.207 97.9826 116.033C92.7008 114.744 90.022 113.809 87.1915 115.199C86.2065 115.739 85.3456 116.48 84.6643 117.373C78.1442 124.954 64.7248 132.789 40.1606 163.014C30.3551 175.094 29.8749 177.09 30.3804 177.621C31.3407 178.657 36.7236 174.891 43.6481 170.039C65.0534 155.407 83.8051 136.933 105.918 123.387C106.676 122.882 109.633 121.113 109.33 119.521Z" stroke="#1D1D1B" stroke-width="2" stroke-miterlimit="10" stroke-linecap="round"/>
</svg>
