<svg width="1084" height="511" viewBox="0 0 1084 511" fill="none" xmlns="http://www.w3.org/2000/svg">
<path d="M19.1802 3C31.8308 4.57648 77.1448 11.7983 109.192 50.3395C159.78 111.162 128.589 191.367 124.983 200.255C104.129 251.423 51.9637 300.129 25.4905 288.628C0.639932 277.848 -6.63193 211.846 19.1802 190.796C46.4948 168.5 111.536 196.066 139.196 238.106C187.275 311.134 130.287 439.625 82.3433 444.835C58.4243 447.447 29.5922 420.092 31.8158 400.649C34.4301 377.677 81.3968 357.348 118.673 365.936C152.147 373.638 155.272 399.387 196.049 435.376C250.137 483.091 311.107 496.423 335.026 501.648C372.963 509.951 409.623 510.282 469.255 501.648C555.515 489.018 639.866 465.702 720.36 432.238C810.161 394.703 935.601 335.683 1082 244.442" stroke="#1D1D1B" stroke-width="5" stroke-miterlimit="10"/>
</svg>
