<svg width="79" height="79" viewBox="0 0 79 79" fill="none" xmlns="http://www.w3.org/2000/svg">
<path d="M39.4079 19.1499C34.0363 19.1499 28.8847 21.2838 25.0864 25.0821C21.2881 28.8804 19.1542 34.032 19.1542 39.4036C19.1542 44.7752 21.2881 49.9268 25.0864 53.7252C28.8847 57.5235 34.0363 59.6573 39.4079 59.6573C44.7796 59.6573 49.9312 57.5235 53.7295 53.7252C57.5278 49.9268 59.6617 44.7752 59.6617 39.4036C59.6617 34.032 57.5278 28.8804 53.7295 25.0821C49.9312 21.2838 44.7796 19.1499 39.4079 19.1499V19.1499ZM39.4079 52.5571C35.9183 52.5571 32.5715 51.1709 30.1039 48.7033C27.6363 46.2357 26.25 42.8889 26.25 39.3992C26.25 35.9095 27.6363 32.5628 30.1039 30.0952C32.5715 27.6276 35.9183 26.2413 39.4079 26.2413C42.8976 26.2413 46.2444 27.6276 48.712 30.0952C51.1796 32.5628 52.5659 35.9095 52.5659 39.3992C52.5659 42.8889 51.1796 46.2357 48.712 48.7033C46.2444 51.1709 42.8976 52.5571 39.4079 52.5571V52.5571Z" fill="black"/>
<path d="M60.4634 23.1272C63.0711 23.1272 65.1851 21.0131 65.1851 18.4054C65.1851 15.7976 63.0711 13.6836 60.4634 13.6836C57.8556 13.6836 55.7416 15.7976 55.7416 18.4054C55.7416 21.0131 57.8556 23.1272 60.4634 23.1272Z" fill="black"/>
<path d="M76.788 13.6047C75.774 10.9862 74.2245 8.60819 72.2385 6.62301C70.2526 4.63783 67.8741 3.08918 65.2552 2.07618C62.1905 0.925771 58.9529 0.303723 55.6802 0.236527C51.4621 0.0525611 50.1262 0 39.4299 0C28.7336 0 27.3627 -4.40566e-07 23.1796 0.236527C19.9094 0.300287 16.6741 0.922462 13.6134 2.07618C10.9938 3.088 8.61468 4.63624 6.6286 6.62156C4.64251 8.60689 3.09337 10.9855 2.08056 13.6047C0.929922 16.6691 0.309301 19.907 0.245287 23.1796C0.0569416 27.3933 0 28.7293 0 39.4299C0 50.1262 -3.26345e-08 51.4884 0.245287 55.6802C0.310989 58.9565 0.928587 62.1891 2.08056 65.2595C3.09621 67.8778 4.64686 70.2554 6.63342 72.2405C8.61999 74.2255 10.9988 75.7744 13.6178 76.788C16.6727 77.9847 19.9093 78.6513 23.1884 78.7591C27.4065 78.9431 28.7424 79 39.4387 79C50.1349 79 51.5059 79 55.689 78.7591C58.9614 78.6925 62.1988 78.072 65.2639 76.9238C67.8822 75.9085 70.26 74.3585 72.2457 72.3727C74.2314 70.387 75.7814 68.0092 76.7968 65.3909C77.9488 62.3249 78.5664 59.0923 78.6321 55.816C78.8204 51.6023 78.8773 50.2664 78.8773 39.5657C78.8773 28.865 78.8774 27.5072 78.6321 23.3154C78.5811 19.9965 77.9572 16.7113 76.788 13.6047V13.6047ZM71.453 55.3561C71.4248 57.8804 70.964 60.3811 70.0908 62.7497C69.433 64.453 68.426 65.9998 67.1345 67.2905C65.8431 68.5812 64.2957 69.5873 62.592 70.2441C60.2497 71.1133 57.7755 71.5741 55.2772 71.6063C51.1161 71.7991 49.9422 71.8473 39.2722 71.8473C28.5935 71.8473 27.5028 71.8473 23.2629 71.6063C20.7659 71.5758 18.2928 71.115 15.9524 70.2441C14.2428 69.5914 12.6892 68.5871 11.3922 67.2961C10.0952 66.0051 9.08366 64.4563 8.42299 62.7497C7.56206 60.4066 7.10155 57.9353 7.06077 55.4393C6.87242 51.2782 6.82862 50.1043 6.82862 39.4343C6.82862 28.7599 6.82862 27.6693 7.06077 23.4249C7.08908 20.9021 7.54983 18.4028 8.42299 16.0357C9.75893 12.5797 12.4965 9.85967 15.9524 8.53687C18.294 7.67022 20.7663 7.20953 23.2629 7.17465C27.4284 6.98631 28.5979 6.93374 39.2722 6.93374C49.9466 6.93374 51.0416 6.93374 55.2772 7.17465C57.7757 7.20471 60.2502 7.66554 62.592 8.53687C64.2956 9.19509 65.8427 10.2022 67.1341 11.4936C68.4255 12.785 69.4326 14.3321 70.0908 16.0357C70.9517 18.3788 71.4122 20.8501 71.453 23.3461C71.6414 27.5116 71.6896 28.6811 71.6896 39.3555C71.6896 50.0255 71.6896 51.173 71.5012 55.3604H71.453V55.3561Z" fill="black"/>
</svg>
