<svg width="74" height="60" viewBox="0 0 74 60" fill="none" xmlns="http://www.w3.org/2000/svg">
<path d="M66.3974 14.953C66.4464 15.6108 66.4464 16.2649 66.4464 16.9189C66.4464 36.9352 51.1847 60 23.2935 60C14.7006 60 6.71769 57.5154 0 53.2001C1.22003 53.3392 2.39487 53.388 3.66385 53.388C10.4907 53.4045 17.1242 51.1257 22.4952 46.9189C19.33 46.8617 16.2617 45.8193 13.7187 43.9371C11.1757 42.0549 9.28496 39.427 8.3105 36.4202C9.24812 36.5593 10.1895 36.6533 11.1761 36.6533C12.5354 36.6533 13.9023 36.4654 15.1713 36.1383C11.7362 35.446 8.64742 33.5873 6.43007 30.8784C4.21273 28.1695 3.00373 24.7775 3.00865 21.2793V21.0913C5.03073 22.2153 7.37665 22.9182 9.8619 23.0122C7.7799 21.6311 6.07273 19.757 4.89269 17.5572C3.71265 15.3573 3.09644 12.9001 3.09902 10.4047C3.09902 7.59303 3.84836 5.01441 5.16253 2.76657C8.97376 7.44651 13.7272 11.2751 19.115 14.0045C24.5029 16.7338 30.4049 18.303 36.4389 18.6105C36.2055 17.4828 36.0624 16.3137 36.0624 15.141C36.0614 13.1523 36.453 11.183 37.2149 9.3456C37.9768 7.50816 39.094 5.83865 40.5026 4.43248C41.9113 3.02632 43.5837 1.91108 45.4244 1.15053C47.265 0.389972 49.2378 -0.000986264 51.2299 1.86842e-06C55.5979 1.86842e-06 59.5404 1.82684 62.3118 4.78136C65.7075 4.12586 68.9638 2.88844 71.9365 1.12392C70.8046 4.62279 68.4337 7.58967 65.2678 9.46874C68.2794 9.12585 71.2227 8.33524 74 7.12317C71.9257 10.142 69.3553 12.7892 66.3974 14.953V14.953Z" fill="black"/>
</svg>
