<svg width="86" height="51" viewBox="0 0 86 51" fill="none" xmlns="http://www.w3.org/2000/svg">
<path d="M84.0282 3.45371C84.629 1.46118 84.0282 0 81.187 0H71.7752C69.3804 0 68.286 1.26408 67.6852 2.65241C67.6852 2.65241 62.8999 14.3033 56.1189 21.8578C53.9301 24.056 52.9302 24.7501 51.7371 24.7501C51.1405 24.7501 50.2736 24.056 50.2736 22.0634V3.45371C50.2736 1.06268 49.5826 0 47.5869 0H32.7976C31.304 0 30.4028 1.10553 30.4028 2.15964C30.4028 4.42211 33.7932 4.94488 34.1409 11.321V25.1529C34.1409 28.1824 33.5958 28.7352 32.3941 28.7352C29.2054 28.7352 21.4459 17.0414 16.8408 3.6551C15.9439 1.05411 15.0383 0.00428673 12.6349 0.00428673H3.2274C0.536469 0.00428673 0 1.26836 0 2.6567C0 5.15056 3.18877 17.4913 14.8537 33.8129C22.6304 44.9582 33.5787 51 43.5527 51C49.5311 51 50.2693 49.6588 50.2693 47.3449V38.9206C50.2693 36.2382 50.8401 35.6983 52.7327 35.6983C54.1233 35.6983 56.5181 36.401 62.1016 41.7701C68.4792 48.1376 69.5349 50.9957 73.1186 50.9957H82.5261C85.2127 50.9957 86.556 49.6545 85.7835 47.0064C84.938 44.3711 81.8909 40.536 77.8481 35.9982C75.6507 33.4101 72.3675 30.6249 71.3675 29.2322C69.9727 27.4368 70.3761 26.6441 71.3675 25.0501C71.3718 25.0544 82.8351 8.93421 84.0282 3.45371V3.45371Z" fill="black"/>
</svg>
