<svg width="196" height="38" viewBox="0 0 196 38" fill="none" xmlns="http://www.w3.org/2000/svg">
<path d="M28.24 25.44C28.6133 26.32 28.6267 27.0533 28.28 27.64C27.96 28.2 27.4933 28.6533 26.88 29C26.2667 29.32 25.64 29.5333 25 29.64C24.36 29.7733 23.92 29.84 23.68 29.84C23.52 29.84 23.2133 29.8533 22.76 29.88C22.3333 29.9333 21.8267 29.9333 21.24 29.88C20.68 29.8533 20.1067 29.7733 19.52 29.64C18.9333 29.5333 18.4133 29.32 17.96 29C17.5333 28.68 17.2133 28.2533 17 27.72C16.7867 27.1867 16.7867 26.4933 17 25.64C15.3467 26.8933 13.8267 27.7867 12.44 28.32C11.0533 28.8533 9.77333 29.12 8.6 29.12C7.42667 29.12 6.37333 28.8933 5.44 28.44C4.50667 27.9867 3.70667 27.4133 3.04 26.72C2.37333 26 1.82667 25.2 1.4 24.32C0.973333 23.44 0.68 22.5733 0.52 21.72C0.28 20.44 0.333333 19.0933 0.68 17.68C1.02667 16.24 1.61333 14.8933 2.44 13.64C3.29333 12.3867 4.33333 11.2933 5.56 10.36C6.81333 9.42667 8.2 8.82666 9.72 8.56C10.0133 8.50667 10.3067 8.46667 10.6 8.44C10.8933 8.41333 11.1867 8.4 11.48 8.4C13.08 8.4 14.4533 8.73333 15.6 9.4C16.7733 10.0667 17.7333 10.8267 18.48 11.68C18.32 9.89333 18 8.29333 17.52 6.88C17.2 5.97333 17.0933 5.24 17.2 4.68C17.3333 4.09333 17.6533 3.64 18.16 3.32C18.6667 3 19.32 2.78666 20.12 2.68C20.9467 2.57333 21.88 2.52 22.92 2.52C23.9867 2.52 24.88 2.57333 25.6 2.68C26.3467 2.76 26.9067 2.96 27.28 3.28C27.68 3.57333 27.9067 4.01333 27.96 4.6C28.04 5.18667 27.9467 5.98667 27.68 7C27.3333 8.33333 27.0267 9.69333 26.76 11.08C26.52 12.44 26.3867 13.88 26.36 15.4C26.36 16.8933 26.4933 18.4667 26.76 20.12C27.0267 21.7733 27.52 23.5467 28.24 25.44ZM18.12 20.12C18.1467 19.8 18.1467 19.3467 18.12 18.76C18.12 18.1733 18.04 17.5867 17.88 17C17.72 16.3867 17.4533 15.8133 17.08 15.28C16.7067 14.7467 16.1733 14.3867 15.48 14.2C14.8933 14.04 14.3333 13.96 13.8 13.96C12.68 13.96 11.7867 14.3733 11.12 15.2C10.4533 16.0267 10.0133 17.32 9.8 19.08C9.58667 20.92 9.74667 22.2667 10.28 23.12C10.84 23.9467 11.64 24.36 12.68 24.36C13.3467 24.36 13.9467 24.24 14.48 24C15.04 23.76 15.5333 23.44 15.96 23.04C16.4133 22.64 16.8133 22.1867 17.16 21.68C17.5067 21.1733 17.8267 20.6533 18.12 20.12ZM53.7434 11.68C54.1434 13.1467 54.3968 14.4933 54.5034 15.72C54.6368 16.92 54.5701 17.9867 54.3034 18.92C54.0634 19.8267 53.6101 20.5733 52.9434 21.16C52.2768 21.7467 51.3568 22.16 50.1834 22.4C49.8101 22.48 49.4634 22.5333 49.1434 22.56C48.8501 22.5867 48.5568 22.6 48.2634 22.6C47.5168 22.6 46.9034 22.4933 46.4234 22.28C45.9434 22.0667 45.5701 21.7867 45.3034 21.44C45.0634 21.0667 44.9168 20.6533 44.8634 20.2C44.8101 19.7467 44.8234 19.28 44.9034 18.8C45.0101 18.24 45.1434 17.5467 45.3034 16.72C45.4634 15.8933 45.5434 15.08 45.5434 14.28C45.5434 13.48 45.4101 12.7733 45.1434 12.16C44.8768 11.5467 44.3568 11.16 43.5834 11C43.1301 10.92 42.6768 11.0667 42.2234 11.44C41.7701 11.8133 41.3568 12.3333 40.9834 13C40.6101 13.6667 40.2768 14.4133 39.9834 15.24C39.6901 16.0667 39.4768 16.88 39.3434 17.68V17.72L39.3034 17.84C39.3034 18.9867 39.3834 20.0133 39.5434 20.92C39.7301 21.8267 39.9168 22.6667 40.1034 23.44C40.3168 24.2133 40.5034 24.9467 40.6634 25.64C40.8234 26.3067 40.9034 27 40.9034 27.72C40.9034 28.12 40.6901 28.4267 40.2634 28.64C39.8368 28.8267 39.3301 28.9733 38.7434 29.08C38.1568 29.1867 37.5568 29.24 36.9434 29.24C36.3568 29.2667 35.8901 29.28 35.5434 29.28C35.1701 29.28 34.6501 29.2667 33.9834 29.24C33.3434 29.24 32.7034 29.1867 32.0634 29.08C31.4501 28.9733 30.9168 28.8267 30.4634 28.64C30.0101 28.4267 29.7834 28.12 29.7834 27.72C29.7834 27 29.8634 26.3067 30.0234 25.64C30.2101 24.9467 30.3968 24.2267 30.5834 23.48C30.7968 22.7067 30.9834 21.8667 31.1434 20.96C31.3034 20.0533 31.3834 19.04 31.3834 17.92C31.3834 17.0933 31.3034 16.24 31.1434 15.36C30.9834 14.4533 30.8101 13.56 30.6234 12.68C30.4368 11.8 30.2634 10.96 30.1034 10.16C29.9434 9.36 29.8634 8.66667 29.8634 8.08C29.8634 7.46667 30.0768 7.02667 30.5034 6.76C30.9568 6.46667 31.4901 6.28 32.1034 6.2C32.7168 6.09333 33.3434 6.05333 33.9834 6.08C34.6234 6.08 35.1434 6.08 35.5434 6.08C35.9168 6.08 36.3968 6.08 36.9834 6.08C37.5701 6.05333 38.1434 6.09333 38.7034 6.2C39.2901 6.28 39.7834 6.46667 40.1834 6.76C40.6101 7.02667 40.8234 7.46667 40.8234 8.08C40.8234 8.21333 40.8234 8.34667 40.8234 8.48C40.8234 8.61333 40.8101 8.74667 40.7834 8.88C41.2634 8.56 41.7701 8.24 42.3034 7.92C42.8368 7.6 43.3568 7.32 43.8634 7.08C44.3968 6.84 44.8901 6.64 45.3434 6.48C45.8234 6.32 46.2368 6.24 46.5834 6.24C47.1701 6.24 47.7968 6.25333 48.4634 6.28C49.1301 6.30667 49.7834 6.48 50.4234 6.8C51.0901 7.09333 51.7034 7.61333 52.2634 8.36C52.8501 9.10667 53.3434 10.2133 53.7434 11.68ZM60.9191 7.96C60.4124 7.96 59.9191 7.86667 59.4391 7.68C58.9857 7.46667 58.5857 7.2 58.2391 6.88C57.8924 6.53333 57.6124 6.13333 57.3991 5.68C57.2124 5.2 57.1191 4.70667 57.1191 4.2C57.1191 3.66667 57.2124 3.17333 57.3991 2.72C57.6124 2.26667 57.8924 1.88 58.2391 1.56C58.5857 1.21333 58.9857 0.946665 59.4391 0.759999C59.9191 0.546665 60.4124 0.439998 60.9191 0.439998C61.4524 0.439998 61.9457 0.546665 62.3991 0.759999C62.8524 0.946665 63.2391 1.21333 63.5591 1.56C63.9057 1.88 64.1724 2.26667 64.3591 2.72C64.5724 3.17333 64.6791 3.66667 64.6791 4.2C64.6791 4.70667 64.5724 5.2 64.3591 5.68C64.1724 6.13333 63.9057 6.53333 63.5591 6.88C63.2391 7.2 62.8524 7.46667 62.3991 7.68C61.9457 7.86667 61.4524 7.96 60.9191 7.96ZM65.2391 19.52C65.2391 20.48 65.3191 21.3467 65.4791 22.12C65.6657 22.8933 65.8524 23.6133 66.0391 24.28C66.2524 24.92 66.4391 25.5467 66.5991 26.16C66.7591 26.7467 66.8391 27.3467 66.8391 27.96C66.8391 28.28 66.6257 28.5333 66.1991 28.72C65.7724 28.9067 65.2657 29.04 64.6791 29.12C64.0924 29.2 63.4924 29.24 62.8791 29.24C62.2924 29.2667 61.8257 29.28 61.4791 29.28C61.1057 29.28 60.5857 29.2667 59.9191 29.24C59.2791 29.24 58.6391 29.2 57.9991 29.12C57.3857 29.04 56.8524 28.9067 56.3991 28.72C55.9457 28.5333 55.7191 28.28 55.7191 27.96C55.7191 27.3467 55.7991 26.7467 55.9591 26.16C56.1457 25.5467 56.3324 24.92 56.5191 24.28C56.7324 23.6133 56.9191 22.8933 57.0791 22.12C57.2391 21.3467 57.3191 20.48 57.3191 19.52C57.3191 18.8 57.2391 18.0533 57.0791 17.28C56.9191 16.5067 56.7457 15.7467 56.5591 15C56.3724 14.2533 56.1991 13.5467 56.0391 12.88C55.8791 12.1867 55.7991 11.5867 55.7991 11.08C55.7991 10.5733 56.0124 10.2 56.4391 9.96C56.8924 9.72 57.4257 9.56 58.0391 9.48C58.6524 9.37333 59.2791 9.33333 59.9191 9.36C60.5591 9.36 61.0791 9.36 61.4791 9.36C61.8524 9.36 62.3324 9.36 62.9191 9.36C63.5057 9.33333 64.0791 9.37333 64.6391 9.48C65.2257 9.56 65.7191 9.72 66.1191 9.96C66.5457 10.2 66.7591 10.5733 66.7591 11.08C66.7591 11.5867 66.6791 12.1867 66.5191 12.88C66.3591 13.5467 66.1857 14.2533 65.9991 15C65.8124 15.7467 65.6391 16.5067 65.4791 17.28C65.3191 18.0533 65.2391 18.8 65.2391 19.52ZM77.8981 24.72C78.3515 24.72 78.9115 24.7067 79.5781 24.68C80.2448 24.6533 80.9515 24.64 81.6981 24.64C82.4448 24.64 83.1915 24.68 83.9381 24.76C84.7115 24.84 85.4048 24.9867 86.0181 25.2C86.6315 25.4133 87.1248 25.72 87.4981 26.12C87.8715 26.4933 88.0581 27 88.0581 27.64C88.0581 28.6533 87.7515 29.32 87.1381 29.64C86.5248 29.9867 85.7248 30.16 84.7381 30.16C83.9115 30.16 83.0181 30.0933 82.0581 29.96C81.0981 29.8533 80.1248 29.7867 79.1381 29.76C78.4981 29.7333 77.8181 29.7733 77.0981 29.88C76.3781 29.9867 75.6581 30.0933 74.9381 30.2C74.2181 30.3333 73.5248 30.4533 72.8581 30.56C72.1915 30.6667 71.5781 30.72 71.0181 30.72C70.3248 30.72 69.7515 30.6 69.2981 30.36C68.8448 30.1467 68.5515 29.7333 68.4181 29.12C68.2581 28.2933 68.4315 27.6 68.9381 27.04C69.4715 26.48 70.1915 26.0267 71.0981 25.68C72.0315 25.3333 73.0981 25.0933 74.2981 24.96C75.4981 24.8 76.6981 24.72 77.8981 24.72ZM100.345 11.4C100.532 11.5867 100.905 11.92 101.465 12.4C102.025 12.88 102.652 13.4667 103.345 14.16C104.065 14.8267 104.799 15.5867 105.545 16.44C106.319 17.2933 106.985 18.2 107.545 19.16C108.132 20.0933 108.559 21.0667 108.825 22.08C109.119 23.0933 109.145 24.1067 108.905 25.12C108.719 25.92 108.332 26.6 107.745 27.16C107.159 27.72 106.425 28.1867 105.545 28.56C104.692 28.9067 103.745 29.16 102.705 29.32C101.665 29.48 100.599 29.56 99.5053 29.56C98.5186 29.56 97.532 29.4933 96.5453 29.36C95.5853 29.2267 94.692 29.04 93.8653 28.8C93.0653 28.56 92.372 28.2667 91.7853 27.92C91.1986 27.5467 90.772 27.1333 90.5053 26.68C89.9453 25.7467 89.5853 24.88 89.4253 24.08C89.292 23.28 89.3186 22.5867 89.5053 22C89.692 21.3867 90.0386 20.92 90.5453 20.6C91.052 20.2533 91.6786 20.08 92.4253 20.08C93.172 20.08 93.7986 20.2133 94.3053 20.48C94.812 20.72 95.2253 21.0533 95.5453 21.48C95.892 21.88 96.172 22.3333 96.3853 22.84C96.5986 23.3467 96.7853 23.8533 96.9453 24.36C97.132 24.9733 97.4786 25.4267 97.9853 25.72C98.5186 26.0133 99.0653 26.16 99.6253 26.16C99.9986 26.16 100.332 26.1067 100.625 26C100.945 25.8667 101.212 25.68 101.425 25.44C101.719 25.0667 101.692 24.5867 101.345 24C100.999 23.3867 100.465 22.6933 99.7453 21.92C99.0253 21.12 98.1986 20.2667 97.2653 19.36C96.332 18.4533 95.412 17.52 94.5053 16.56C93.5986 15.6 92.7853 14.6533 92.0653 13.72C91.372 12.76 90.9053 11.84 90.6653 10.96C90.292 9.65333 90.3586 8.58667 90.8653 7.76C91.3986 6.93333 92.1053 6.28 92.9853 5.8C93.892 5.32 94.8386 4.97333 95.8253 4.76C96.8386 4.52 97.652 4.34667 98.2653 4.24C98.8786 4.13333 99.692 4.10667 100.705 4.16C101.745 4.21333 102.785 4.36 103.825 4.6C104.865 4.84 105.799 5.2 106.625 5.68C107.452 6.13333 107.985 6.74667 108.225 7.52C108.252 7.54667 108.265 7.57333 108.265 7.6C108.399 8.08 108.412 8.54667 108.305 9C108.199 9.42667 107.999 9.81333 107.705 10.16C107.439 10.48 107.092 10.7467 106.665 10.96C106.239 11.1467 105.785 11.2267 105.305 11.2C105.039 11.1733 104.759 11.1333 104.465 11.08C104.172 11.0267 103.905 10.9333 103.665 10.8C103.425 10.6667 103.212 10.4933 103.025 10.28C102.839 10.04 102.719 9.76 102.665 9.44C102.559 8.88 102.372 8.44 102.105 8.12C101.839 7.8 101.545 7.57333 101.225 7.44C100.905 7.28 100.572 7.2 100.225 7.2C99.9053 7.17333 99.6253 7.18667 99.3853 7.24C98.7186 7.42667 98.3453 7.69333 98.2653 8.04C98.1853 8.38667 98.252 8.76 98.4653 9.16C98.6786 9.56 98.972 9.96 99.3453 10.36C99.7453 10.76 100.079 11.1067 100.345 11.4ZM136.01 21.12C136.01 21.9467 136.117 22.72 136.33 23.44C136.544 24.16 136.744 24.84 136.93 25.48C137.144 26.0933 137.29 26.6533 137.37 27.16C137.45 27.64 137.357 28.08 137.09 28.48C136.93 28.6933 136.664 28.88 136.29 29.04C135.944 29.2 135.53 29.3333 135.05 29.44C134.57 29.5467 134.037 29.6133 133.45 29.64C132.89 29.6933 132.317 29.72 131.73 29.72C131.064 29.72 130.397 29.6933 129.73 29.64C129.064 29.5867 128.464 29.5067 127.93 29.4C127.397 29.2933 126.944 29.16 126.57 29C126.224 28.84 126.01 28.6667 125.93 28.48C125.797 26.72 125.944 24.8533 126.37 22.88C126.824 20.88 127.544 18.96 128.53 17.12C129.037 16.1867 129.41 15.3333 129.65 14.56C129.89 13.76 129.957 13.08 129.85 12.52C129.77 11.9333 129.49 11.48 129.01 11.16C128.557 10.84 127.877 10.68 126.97 10.68C126.17 10.68 125.424 11.0267 124.73 11.72C124.064 12.4133 123.464 13.2267 122.93 14.16C122.397 15.0933 121.957 16.0267 121.61 16.96C121.264 17.8667 121.024 18.52 120.89 18.92C121.21 20.9733 121.81 23.2133 122.69 25.64C123.064 26.52 123.024 27.24 122.57 27.8C122.117 28.36 121.504 28.7867 120.73 29.08C119.984 29.4 119.224 29.6133 118.45 29.72C117.704 29.8267 117.21 29.88 116.97 29.88C116.81 29.88 116.504 29.8933 116.05 29.92C115.597 29.9733 115.077 29.9733 114.49 29.92C113.93 29.8933 113.344 29.8133 112.73 29.68C112.144 29.5467 111.624 29.32 111.17 29C110.744 28.6533 110.437 28.2 110.25 27.64C110.064 27.0533 110.104 26.3067 110.37 25.4C110.77 24.0667 111.104 22.6 111.37 21C111.637 19.3733 111.81 17.7333 111.89 16.08C111.97 14.4267 111.93 12.8133 111.77 11.24C111.61 9.64 111.304 8.2 110.85 6.92C110.53 6.01333 110.424 5.28 110.53 4.72C110.664 4.13333 110.984 3.68 111.49 3.36C111.997 3.04 112.65 2.82667 113.45 2.72C114.277 2.61333 115.21 2.56 116.25 2.56C117.317 2.56 118.237 2.58667 119.01 2.64C119.81 2.69333 120.437 2.86667 120.89 3.16C121.37 3.42667 121.664 3.84 121.77 4.4C121.904 4.93333 121.837 5.70667 121.57 6.72C121.357 7.52 121.17 8.34667 121.01 9.2C120.877 10.0267 120.77 10.88 120.69 11.76C121.704 10.3467 122.917 9.09333 124.33 8C125.77 6.90667 127.37 6.25333 129.13 6.04C130.25 5.90667 131.224 5.92 132.05 6.08C132.877 6.24 133.584 6.49333 134.17 6.84C134.757 7.16 135.224 7.56 135.57 8.04C135.944 8.49333 136.21 8.98667 136.37 9.52C136.557 10.0267 136.637 10.7733 136.61 11.76C136.61 12.72 136.557 13.76 136.45 14.88C136.37 16 136.277 17.12 136.17 18.24C136.064 19.36 136.01 20.32 136.01 21.12ZM151.567 5.28C153.38 5.28 155.087 5.6 156.687 6.24C158.287 6.88 159.674 7.76 160.847 8.88C162.047 9.97333 162.994 11.2667 163.687 12.76C164.38 14.2267 164.727 15.8 164.727 17.48C164.727 19.16 164.38 20.7467 163.687 22.24C162.994 23.7333 162.047 25.0267 160.847 26.12C159.674 27.2133 158.287 28.08 156.687 28.72C155.087 29.36 153.38 29.68 151.567 29.68C149.754 29.68 148.047 29.36 146.447 28.72C144.874 28.08 143.487 27.2133 142.287 26.12C141.114 25.0267 140.18 23.7333 139.487 22.24C138.794 20.7467 138.447 19.16 138.447 17.48C138.447 15.8 138.794 14.2267 139.487 12.76C140.18 11.2667 141.114 9.97333 142.287 8.88C143.487 7.76 144.874 6.88 146.447 6.24C148.047 5.6 149.754 5.28 151.567 5.28ZM151.567 26.56C152.207 26.56 152.78 26.32 153.287 25.84C153.82 25.36 154.26 24.72 154.607 23.92C154.98 23.0933 155.26 22.1333 155.447 21.04C155.66 19.92 155.767 18.7333 155.767 17.48C155.767 16.2267 155.66 15.0533 155.447 13.96C155.26 12.84 154.98 11.88 154.607 11.08C154.234 10.2533 153.78 9.6 153.247 9.12C152.74 8.64 152.18 8.4 151.567 8.4C150.874 8.4 150.26 8.64 149.727 9.12C149.22 9.6 148.794 10.2533 148.447 11.08C148.127 11.88 147.874 12.84 147.687 13.96C147.527 15.0533 147.447 16.2267 147.447 17.48C147.447 18.7333 147.527 19.92 147.687 21.04C147.847 22.1333 148.087 23.0933 148.407 23.92C148.754 24.7467 149.18 25.4 149.687 25.88C150.22 26.3333 150.847 26.56 151.567 26.56ZM186.757 6.52C188.251 6.65333 189.504 7.01333 190.517 7.6C191.531 8.16 192.357 8.86667 192.997 9.72C193.637 10.5467 194.117 11.4667 194.437 12.48C194.784 13.4667 195.011 14.44 195.117 15.4C195.251 16.36 195.291 17.2667 195.237 18.12C195.184 18.9467 195.104 19.6267 194.997 20.16C194.784 21.1467 194.371 22.1867 193.757 23.28C193.171 24.3733 192.411 25.3867 191.477 26.32C190.571 27.2533 189.517 28.0267 188.317 28.64C187.117 29.2533 185.797 29.56 184.357 29.56C183.077 29.56 181.704 29.2533 180.237 28.64C178.797 28.0267 177.291 26.9867 175.717 25.52C175.824 26.56 175.957 27.52 176.117 28.4C176.277 29.2533 176.424 30.0667 176.557 30.84C176.717 31.64 176.851 32.4 176.957 33.12C177.064 33.8667 177.117 34.6267 177.117 35.4C177.117 35.9333 176.904 36.3333 176.477 36.6C176.051 36.8933 175.544 37.0933 174.957 37.2C174.371 37.3333 173.771 37.4133 173.157 37.44C172.571 37.4667 172.104 37.48 171.757 37.48C171.384 37.48 170.864 37.4667 170.197 37.44C169.557 37.4133 168.917 37.3333 168.277 37.2C167.664 37.0933 167.131 36.8933 166.677 36.6C166.224 36.3333 165.997 35.9333 165.997 35.4C165.997 34.44 166.077 33.4933 166.237 32.56C166.424 31.6533 166.611 30.68 166.797 29.64C167.011 28.6267 167.197 27.52 167.357 26.32C167.517 25.0933 167.597 23.72 167.597 22.2C167.597 21.1067 167.491 19.9467 167.277 18.72C167.091 17.4933 166.877 16.2933 166.637 15.12C166.424 13.9467 166.211 12.8267 165.997 11.76C165.811 10.6667 165.717 9.72 165.717 8.92C165.717 8.12 165.957 7.52 166.437 7.12C166.944 6.72 167.517 6.45333 168.157 6.32C168.824 6.16 169.491 6.08 170.157 6.08C170.851 6.08 171.384 6.08 171.757 6.08C172.131 6.08 172.611 6.08 173.197 6.08C173.784 6.08 174.357 6.17333 174.917 6.36C175.504 6.52 175.997 6.8 176.397 7.2C176.824 7.6 177.037 8.2 177.037 9C177.037 9.16 177.037 9.33333 177.037 9.52C177.037 9.68 177.024 9.86667 176.997 10.08C177.451 9.62667 177.984 9.17333 178.597 8.72C179.211 8.24 179.917 7.82667 180.717 7.48C181.544 7.10666 182.451 6.82667 183.437 6.64C184.451 6.45333 185.557 6.41333 186.757 6.52ZM179.437 22.92C180.157 22.92 180.864 22.7867 181.557 22.52C182.277 22.2267 182.917 21.8 183.477 21.24C184.037 20.6533 184.491 19.9067 184.837 19C185.211 18.0933 185.397 17 185.397 15.72C185.397 14.4667 185.277 13.48 185.037 12.76C184.797 12.04 184.477 11.5067 184.077 11.16C183.704 10.7867 183.277 10.56 182.797 10.48C182.317 10.3733 181.837 10.32 181.357 10.32C180.931 10.32 180.477 10.4267 179.997 10.64C179.544 10.8267 179.104 11.0933 178.677 11.44C178.251 11.76 177.851 12.1467 177.477 12.6C177.104 13.0533 176.771 13.5333 176.477 14.04C176.317 15 176.157 15.9867 175.997 17C175.837 18.0133 175.717 19.0133 175.637 20C176.144 20.7467 176.717 21.4267 177.357 22.04C178.024 22.6267 178.717 22.92 179.437 22.92Z" fill="black"/>
</svg>
