<svg width="49" height="46" viewBox="0 0 49 46" fill="none" xmlns="http://www.w3.org/2000/svg">
<path d="M48.2748 7.96526L40.9321 0.709371C40.705 0.48411 40.435 0.305466 40.1378 0.183723C39.8405 0.0619793 39.5218 -0.000458666 39.2 2.53647e-06H9.8C9.47821 -0.000458666 9.1595 0.0619793 8.86223 0.183723C8.56495 0.305466 8.29498 0.48411 8.06785 0.709371L0.725202 7.96526C0.495113 8.18952 0.312494 8.45679 0.187988 8.75149C0.0634813 9.04619 -0.000421964 9.36244 2.09677e-06 9.68179V41.1579C2.09677e-06 42.4421 0.51625 43.6737 1.43518 44.5818C2.35411 45.4899 3.60044 46 4.9 46H44.1C45.3996 46 46.6459 45.4899 47.5648 44.5818C48.4837 43.6737 49 42.4421 49 41.1579V9.68179C49.0004 9.36244 48.9365 9.04619 48.812 8.75149C48.6875 8.45679 48.5049 8.18952 48.2748 7.96526ZM10.8143 4.84211H38.1857L40.6357 7.26316H8.3643L10.8143 4.84211ZM36.75 26.6316V29.0526H12.25V19.3684H17.15V24.2105H31.85V19.3684H36.75V26.6316Z" fill="black"/>
</svg>
